<svg width="27" height="22" viewBox="0 0 27 22" fill="none" xmlns="http://www.w3.org/2000/svg">
<path d="M1.38 18.452C1.38 18.552 1.398 18.646 1.434 18.734C1.47 18.818 1.518 18.892 1.578 18.956C1.642 19.02 1.716 19.07 1.8 19.106C1.888 19.142 1.982 19.16 2.082 19.16C2.178 19.16 2.268 19.142 2.352 19.106C2.44 19.07 2.514 19.02 2.574 18.956C2.638 18.892 2.688 18.818 2.724 18.734C2.764 18.65 2.784 18.56 2.784 18.464C2.784 18.368 2.764 18.278 2.724 18.194C2.688 18.106 2.638 18.03 2.574 17.966C2.514 17.902 2.44 17.852 2.352 17.816C2.268 17.78 2.178 17.762 2.082 17.762C1.982 17.762 1.888 17.78 1.8 17.816C1.716 17.852 1.642 17.902 1.578 17.966C1.518 18.03 1.47 18.104 1.434 18.188C1.398 18.268 1.38 18.356 1.38 18.452ZM2.748 16.922H3.84V20H2.748V19.658C2.516 19.95 2.202 20.096 1.806 20.096C1.582 20.096 1.376 20.056 1.188 19.976C1 19.892 0.836 19.776 0.696 19.628C0.556 19.48 0.446 19.306 0.366 19.106C0.29 18.906 0.252 18.688 0.252 18.452C0.252 18.232 0.29 18.024 0.366 17.828C0.442 17.628 0.548 17.454 0.684 17.306C0.82 17.158 0.982 17.042 1.17 16.958C1.358 16.87 1.566 16.826 1.794 16.826C2.178 16.826 2.496 16.96 2.748 17.228V16.922ZM5.58703 18.452C5.58703 18.552 5.60503 18.646 5.64103 18.734C5.67703 18.818 5.72503 18.892 5.78503 18.956C5.84903 19.02 5.92303 19.07 6.00703 19.106C6.09503 19.142 6.18903 19.16 6.28903 19.16C6.38503 19.16 6.47503 19.142 6.55903 19.106C6.64703 19.07 6.72103 19.02 6.78103 18.956C6.84503 18.892 6.89503 18.818 6.93103 18.734C6.97103 18.65 6.99103 18.56 6.99103 18.464C6.99103 18.368 6.97103 18.278 6.93103 18.194C6.89503 18.106 6.84503 18.03 6.78103 17.966C6.72103 17.902 6.64703 17.852 6.55903 17.816C6.47503 17.78 6.38503 17.762 6.28903 17.762C6.19303 17.762 6.10103 17.78 6.01303 17.816C5.92903 17.852 5.85503 17.902 5.79103 17.966C5.73103 18.03 5.68103 18.104 5.64103 18.188C5.60503 18.268 5.58703 18.356 5.58703 18.452ZM6.95503 15.02H8.04703V20H6.95503V19.658C6.72303 19.95 6.40903 20.096 6.01303 20.096C5.78903 20.096 5.58303 20.054 5.39503 19.97C5.20703 19.886 5.04303 19.77 4.90303 19.622C4.76303 19.474 4.65303 19.3 4.57303 19.1C4.49703 18.9 4.45903 18.684 4.45903 18.452C4.45903 18.232 4.49503 18.024 4.56703 17.828C4.64303 17.628 4.74903 17.454 4.88503 17.306C5.02103 17.158 5.18303 17.042 5.37103 16.958C5.56303 16.87 5.77303 16.826 6.00103 16.826C6.38503 16.826 6.70303 16.96 6.95503 17.228V15.02ZM9.79406 18.452C9.79406 18.552 9.81206 18.646 9.84806 18.734C9.88406 18.818 9.93206 18.892 9.99206 18.956C10.0561 19.02 10.1301 19.07 10.2141 19.106C10.3021 19.142 10.3961 19.16 10.4961 19.16C10.5921 19.16 10.6821 19.142 10.7661 19.106C10.8541 19.07 10.9281 19.02 10.9881 18.956C11.0521 18.892 11.1021 18.818 11.1381 18.734C11.1781 18.65 11.1981 18.56 11.1981 18.464C11.1981 18.368 11.1781 18.278 11.1381 18.194C11.1021 18.106 11.0521 18.03 10.9881 17.966C10.9281 17.902 10.8541 17.852 10.7661 17.816C10.6821 17.78 10.5921 17.762 10.4961 17.762C10.4001 17.762 10.3081 17.78 10.2201 17.816C10.1361 17.852 10.0621 17.902 9.99806 17.966C9.93806 18.03 9.88806 18.104 9.84806 18.188C9.81206 18.268 9.79406 18.356 9.79406 18.452ZM11.1621 15.02H12.2541V20H11.1621V19.658C10.9301 19.95 10.6161 20.096 10.2201 20.096C9.99606 20.096 9.79006 20.054 9.60206 19.97C9.41406 19.886 9.25006 19.77 9.11006 19.622C8.97006 19.474 8.86006 19.3 8.78006 19.1C8.70406 18.9 8.66606 18.684 8.66606 18.452C8.66606 18.232 8.70206 18.024 8.77406 17.828C8.85006 17.628 8.95606 17.454 9.09206 17.306C9.22806 17.158 9.39006 17.042 9.57806 16.958C9.77006 16.87 9.98006 16.826 10.2081 16.826C10.5921 16.826 10.9101 16.96 11.1621 17.228V15.02ZM14.0791 16.922V20H12.9931V16.922H14.0791ZM12.9211 15.74C12.9211 15.656 12.9371 15.578 12.9691 15.506C13.0011 15.43 13.0451 15.364 13.1011 15.308C13.1571 15.252 13.2211 15.208 13.2931 15.176C13.3691 15.144 13.4491 15.128 13.5331 15.128C13.6171 15.128 13.6951 15.144 13.7671 15.176C13.8431 15.208 13.9091 15.252 13.9651 15.308C14.0211 15.364 14.0651 15.43 14.0971 15.506C14.1291 15.578 14.1451 15.656 14.1451 15.74C14.1451 15.824 14.1291 15.904 14.0971 15.98C14.0651 16.052 14.0211 16.116 13.9651 16.172C13.9091 16.228 13.8431 16.272 13.7671 16.304C13.6951 16.336 13.6171 16.352 13.5331 16.352C13.4491 16.352 13.3691 16.336 13.2931 16.304C13.2211 16.272 13.1571 16.228 13.1011 16.172C13.0451 16.116 13.0011 16.052 12.9691 15.98C12.9371 15.904 12.9211 15.824 12.9211 15.74ZM16.0992 19.004H16.3692C16.5732 19.004 16.7552 18.972 16.9152 18.908C17.0752 18.844 17.2092 18.756 17.3172 18.644C17.4292 18.532 17.5132 18.4 17.5692 18.248C17.6292 18.092 17.6592 17.922 17.6592 17.738C17.6592 17.558 17.6292 17.39 17.5692 17.234C17.5092 17.078 17.4232 16.944 17.3112 16.832C17.2032 16.72 17.0692 16.632 16.9092 16.568C16.7492 16.504 16.5692 16.472 16.3692 16.472H16.0992V19.004ZM14.9232 15.476H16.6632C16.9712 15.476 17.2592 15.538 17.5272 15.662C17.7992 15.786 18.0352 15.952 18.2352 16.16C18.4392 16.364 18.5992 16.604 18.7152 16.88C18.8312 17.152 18.8892 17.438 18.8892 17.738C18.8892 18.034 18.8312 18.32 18.7152 18.596C18.6032 18.868 18.4452 19.108 18.2412 19.316C18.0412 19.524 17.8052 19.69 17.5332 19.814C17.2652 19.938 16.9752 20 16.6632 20H14.9232V15.476ZM21.788 18.014C21.752 17.862 21.678 17.74 21.566 17.648C21.454 17.556 21.318 17.51 21.158 17.51C20.99 17.51 20.852 17.554 20.744 17.642C20.64 17.73 20.574 17.854 20.546 18.014H21.788ZM20.516 18.644C20.516 19.112 20.736 19.346 21.176 19.346C21.412 19.346 21.59 19.25 21.71 19.058H22.76C22.548 19.762 22.018 20.114 21.17 20.114C20.91 20.114 20.672 20.076 20.456 20C20.24 19.92 20.054 19.808 19.898 19.664C19.746 19.52 19.628 19.348 19.544 19.148C19.46 18.948 19.418 18.724 19.418 18.476C19.418 18.22 19.458 17.99 19.538 17.786C19.618 17.578 19.732 17.402 19.88 17.258C20.028 17.114 20.206 17.004 20.414 16.928C20.626 16.848 20.864 16.808 21.128 16.808C21.388 16.808 21.622 16.848 21.83 16.928C22.038 17.004 22.214 17.116 22.358 17.264C22.502 17.412 22.612 17.594 22.688 17.81C22.764 18.022 22.802 18.262 22.802 18.53V18.644H20.516ZM24.1283 16.922L24.8603 18.5L25.6043 16.922H26.8163L25.2143 20H24.4883L22.9043 16.922H24.1283Z" fill="black"/>
<path d="M2.32928 13.9998L1.7312 12.9639L6.06133 10.4639L8.10278 13.9998H2.32928Z" fill="black"/>
<path d="M16.1858 13.9998H10.4123L6.79346 7.73193L11.1236 5.23193L16.1858 13.9998Z" fill="black"/>
<path d="M24.2687 14H18.4952L11.8557 2.5L16.1858 0L24.2687 14Z" fill="black"/>
</svg>
